<svg width="62" height="62" viewBox="0 0 62 62" fill="none" xmlns="http://www.w3.org/2000/svg">
<circle cx="31" cy="31" r="30.5" stroke="#FAFAFA"/>
<path d="M37.5 22V20.5C37.5 19.6715 36.8285 19 36 19H27C26.1716 19 25.5 19.6715 25.5 20.5V22H37.5Z" fill="white"/>
<path d="M25.5253 23.5C25.6429 25.2046 26.1829 26.6858 27.3495 27.6358C28.0548 28.21 28.5 29.0424 28.5 29.9519V41.5C28.5 42.3284 29.1716 43 30 43H33C33.8285 43 34.5 42.3284 34.5 41.5V29.6756C34.5 28.7316 34.9858 27.8845 35.7265 27.2992C36.8385 26.4205 37.3568 25.1241 37.4732 23.5H25.5253ZM31.5 32.5C30.6716 32.5 30 31.8284 30 31C30 30.1715 30.6716 29.5 31.5 29.5C32.3285 29.5 33 30.1715 33 31C33 31.8284 32.3285 32.5 31.5 32.5Z" fill="white"/>
</svg>
