<svg width="52" height="51" viewBox="0 0 52 51" fill="none" xmlns="http://www.w3.org/2000/svg">
<path d="M38.652 32.4093C38.6876 34.8794 36.7631 36.8483 34.0546 36.8483C24.6817 36.8841 15.3088 36.8841 5.93587 36.8841L7.00502 35.2374C6.50608 34.235 6.07842 33.2327 5.75768 32.1946L1.87308 31.3354C1.16032 31.1922 0.661377 30.5479 0.661377 29.8319V21.2047C0.661377 20.4887 1.16032 19.8801 1.87308 19.7011L5.75768 18.842C6.11406 17.8039 6.50608 16.8015 7.00502 15.7992L4.83108 12.4342C4.43905 11.8256 4.54597 11.0381 5.04491 10.5369L11.1034 4.45131C11.6024 3.91434 12.4221 3.84275 12.9923 4.23652L16.3423 6.42018C17.3402 5.91902 18.3381 5.48944 19.3716 5.16726L20.2269 1.22951C20.3694 0.549355 20.9753 0.0839844 21.7237 0.0839844H30.2769C30.9897 0.0839844 31.6312 0.549355 31.7737 1.26531L32.6291 5.20306C33.6626 5.52524 34.6961 5.95481 35.6583 6.45598L39.0084 4.27232C39.6142 3.87854 40.3983 3.98594 40.8972 4.48711L46.9557 10.5727C47.0983 10.7159 47.2408 10.9665 47.3121 11.1813C44.2828 10.7517 41.2536 10.3579 38.2243 10.1074C31.9876 9.57038 25.7152 9.17661 19.4785 9.3556C14.6673 9.53459 11.0678 14.3315 11.3529 19.0568C11.6024 22.744 13.8832 25.8942 17.0907 27.2903C18.1955 27.7914 19.4072 28.042 20.6902 28.0778C25.145 28.1494 29.5642 28.0778 34.019 28.1136C34.2684 28.1136 34.4823 28.1494 34.6961 28.1494C37.0482 28.4 38.6163 30.0825 38.652 32.4093Z" fill="#00AEEF"/>
<path d="M51.3392 21.2045V29.8318C51.3392 30.5477 50.8403 31.1563 50.1631 31.3353L46.2429 32.1944C45.8865 33.2326 45.4945 34.2349 44.9955 35.2372L47.1339 38.6022C47.5259 39.2108 47.419 39.9983 46.92 40.4995L40.8615 46.5851C40.3625 47.0863 39.5785 47.1579 38.9726 46.7999L35.6226 44.6162C34.6604 45.1174 33.6269 45.547 32.5934 45.8692L31.738 49.7711C31.5955 50.4871 30.9896 50.9882 30.2412 50.9882H21.688C20.9752 50.9882 20.3694 50.4871 20.1912 49.7711L19.3359 45.8692C18.3023 45.5112 17.3045 45.1174 16.3066 44.6162L12.9566 46.7999C12.3864 47.1937 11.5667 47.0863 11.0677 46.5851L5.0092 40.4995C4.79537 40.2847 4.65282 39.9983 4.58154 39.712C14.3821 41.1439 24.1827 41.9672 34.0545 42.003C39.5429 42.003 43.7126 37.7431 43.7126 32.445C43.6769 27.5049 39.7567 23.4598 34.696 23.066C34.4466 23.0302 34.1615 23.0302 33.8763 23.0302C29.6354 22.9944 25.3944 23.0302 21.1534 23.0302C19.7279 22.9944 18.5518 22.5648 17.7321 21.7773C16.9481 20.9897 16.4491 19.88 16.4491 18.6271C16.4848 16.0497 18.3023 14.2956 21.0821 14.2956C29.3859 14.2598 37.6897 14.2598 45.9934 14.2598L44.9599 15.8707C45.4232 16.873 45.8509 17.8753 46.2073 18.9135L50.1275 19.7726C50.8046 19.88 51.3392 20.4886 51.3392 21.2045Z" fill="#323232"/>
</svg>
