<svg width="144" height="36" viewBox="0 0 144 36" fill="none" xmlns="http://www.w3.org/2000/svg">
<g clip-path="url(#clip0_3203_2052)">
<path d="M26.9831 22.8608C27.0084 24.6076 25.6415 26 23.7178 26C17.0606 26.0253 10.4034 26.0253 3.74624 26.0253L4.50562 24.8608C4.15124 24.1519 3.84749 23.443 3.61968 22.7089L0.860624 22.1013C0.354375 22 0 21.5443 0 21.038V14.9367C0 14.4304 0.354375 14 0.860624 13.8734L3.61968 13.2658C3.87281 12.5316 4.15124 11.8228 4.50562 11.1139L2.96156 8.73418C2.68312 8.3038 2.75906 7.74684 3.11343 7.39241L7.41655 3.08861C7.77093 2.70886 8.35311 2.65823 8.75811 2.93671L11.1375 4.48101C11.8462 4.12658 12.555 3.82278 13.289 3.59494L13.8965 0.810127C13.9978 0.329114 14.4281 0 14.9597 0H21.0347C21.5409 0 21.9965 0.329114 22.0978 0.835443L22.7053 3.62025C23.4393 3.8481 24.1734 4.1519 24.8568 4.50633L27.2362 2.96203C27.6665 2.68354 28.2234 2.75949 28.5778 3.11392L32.8809 7.41772C32.9821 7.51899 33.0834 7.6962 33.134 7.8481C30.9825 7.5443 28.8309 7.26582 26.6793 7.08861C22.2497 6.70886 17.7947 6.43038 13.365 6.55696C9.9478 6.68354 7.39124 10.0759 7.59374 13.4177C7.77093 16.0253 9.39092 18.2532 11.669 19.2405C12.4537 19.5949 13.3144 19.7722 14.2256 19.7975C17.3897 19.8481 20.5284 19.7975 23.6925 19.8228C23.8697 19.8228 24.0215 19.8481 24.1734 19.8481C25.844 20.0253 26.9578 21.2152 26.9831 22.8608Z" fill="#00AEEF"/>
<path d="M35.9943 14.9368V21.038C35.9943 21.5444 35.6399 21.9748 35.159 22.1013L32.3746 22.7089C32.1215 23.4431 31.8431 24.152 31.4887 24.8608L33.0074 27.2406C33.2859 27.671 33.2099 28.2279 32.8556 28.5824L28.5525 32.8861C28.1981 33.2406 27.6412 33.2912 27.2109 33.038L24.8315 31.4937C24.1481 31.8482 23.414 32.152 22.68 32.3798L22.0725 35.1393C21.9712 35.6456 21.5409 36.0001 21.0093 36.0001H14.9343C14.4281 36.0001 13.9978 35.6456 13.8712 35.1393L13.2637 32.3798C12.5297 32.1267 11.8209 31.8482 11.1122 31.4937L8.73279 33.038C8.32779 33.3165 7.74561 33.2406 7.39123 32.8861L3.08811 28.5824C2.93624 28.4305 2.83499 28.2279 2.78436 28.0254C9.74529 29.038 16.7062 29.6203 23.7178 29.6456C27.6159 29.6456 30.5774 26.633 30.5774 22.8862C30.5521 19.3925 27.7678 16.5317 24.1734 16.2532C23.9962 16.2279 23.7937 16.2279 23.5912 16.2279C20.579 16.2026 17.5668 16.2279 14.5547 16.2279C13.5422 16.2026 12.7068 15.8988 12.1247 15.3418C11.5678 14.7849 11.2134 14.0001 11.2134 13.114C11.2387 11.2912 12.5297 10.0507 14.504 10.0507C20.4018 10.0254 26.2996 10.0254 32.1974 10.0254L31.4634 11.1646C31.7924 11.8735 32.0962 12.5824 32.3493 13.3165L35.1337 13.9241C35.6146 14.0001 35.9943 14.4305 35.9943 14.9368Z" fill="#323232"/>
<path d="M43.0059 7.31641H52.8525V10.3291H47.3343V17.3164H51.84V20.3544H47.3343V31.2658H42.9806V7.31641H43.0059Z" fill="#323232"/>
<path d="M58.0922 7.31641H62.775L67.559 31.2658H63.509L62.5725 25.7468H58.3959L57.4087 31.2658H53.3081L58.0922 7.31641ZM62.0662 22.962L60.4462 12.9113L58.8262 22.962H62.0662Z" fill="#323232"/>
<path d="M69.3309 23.6204V15.0634C69.3309 10.152 70.9002 7.03809 76.1652 7.03809C81.0759 7.03809 82.6452 9.74695 82.6452 13.9242V15.9495H78.4434V13.8735C78.4434 11.8735 78.418 10.228 76.1905 10.228C73.9377 10.228 73.7352 11.9495 73.7352 14.1267V24.5064C73.7352 27.114 74.2668 28.3545 76.1905 28.3545C78.3421 28.3545 78.4434 26.6583 78.4434 24.5318V22.3799H82.6452V24.3039C82.6452 28.5318 81.2277 31.5697 76.1652 31.5697C70.9002 31.595 69.3309 28.2786 69.3309 23.6204Z" fill="#323232"/>
<path d="M88.0874 10.5316H84.2652V7.31641H96.1874V10.5316H92.4664V31.2658H88.0874V10.5316Z" fill="#323232"/>
<path d="M97.8833 23.7469V14.7596C97.8833 9.89884 99.6552 7.03809 104.794 7.03809C109.907 7.03809 111.679 9.89884 111.679 14.7596V23.7469C111.679 28.5571 109.907 31.595 104.794 31.595C99.6045 31.595 97.8833 28.6077 97.8833 23.7469ZM107.249 24.7849V13.7723C107.249 11.7723 106.92 10.2533 104.794 10.2533C102.667 10.2533 102.313 11.7723 102.313 13.7723V24.8102C102.313 26.7849 102.642 28.3799 104.794 28.3799C106.92 28.3799 107.249 26.7849 107.249 24.7849Z" fill="#323232"/>
<path d="M114.919 7.31641H120.69C125.474 7.31641 128.208 8.86071 128.208 13.6708C128.208 16.5316 127.499 18.5569 125.246 19.4683L128.587 31.2658H124.208L121.348 20.3037H119.272V31.2658H114.919V7.31641ZM120.639 17.5696C123.145 17.5696 124.082 16.481 124.082 13.8987C124.082 11.4683 123.398 10.3037 120.892 10.3037H119.272V17.5696H120.639Z" fill="#323232"/>
<path d="M134.561 22.1265L129.701 7.31641H133.776L136.738 16.8101L139.522 7.31641H143.522L138.712 22.1265V31.2658H134.536V22.1265H134.561Z" fill="#323232"/>
</g>
<defs>
<clipPath id="clip0_3203_2052">
<rect width="143.496" height="36" fill="white"/>
</clipPath>
</defs>
</svg>
